<svg xmlns="http://www.w3.org/2000/svg" viewBox="0 0 400 300" width="406" height="306" class="illustration styles_illustrationTablet__1DWOa"><g id="_272_businessman_outline" data-name="#272_businessman_outline"><path d="M280.13,162.29a79.83,79.83,0,0,1-20.27,53.28,80.6,80.6,0,0,1-25.2,19q-2.83,1.37-5.78,2.5A77.21,77.21,0,0,1,218,240.39c-1.08.26-2.16.48-3.26.67q-3.39.65-6.89,1c-2,.21-4.1.32-6.19.36-.56,0-1.11,0-1.67,0s-1.18,0-1.76,0q-3.09-.06-6.1-.36-3.49-.33-6.89-1c-1.1-.19-2.18-.41-3.26-.67a77.21,77.21,0,0,1-10.87-3.33q-2.94-1.14-5.78-2.5a80.16,80.16,0,0,1,58.49-148.8,76.75,76.75,0,0,1,8.47,3.18,80.21,80.21,0,0,1,47.83,73.35Z" fill="#fff"></path><path d="M200,243.43c-.6,0-1.2,0-1.79,0-2,0-4.11-.16-6.17-.37-2.31-.22-4.66-.55-7-1-1.17-.21-2.25-.43-3.3-.68a78.69,78.69,0,0,1-11-3.38c-2-.79-4-1.64-5.85-2.53a81.68,81.68,0,0,1-16-10.14A81.16,81.16,0,0,1,224.13,84.8a81.72,81.72,0,0,1,25.58,13.38,81.13,81.13,0,0,1,1.37,127.14,81.68,81.68,0,0,1-16,10.14c-1.83.89-3.8,1.74-5.85,2.53a78.69,78.69,0,0,1-11,3.38c-1.05.25-2.13.47-3.31.68-2.31.43-4.66.76-7,1-2,.21-4.08.33-6.26.37C201.13,243.42,200.57,243.43,200,243.43Zm0-160.27a79.16,79.16,0,0,0-34.22,150.5c1.79.86,3.71,1.69,5.7,2.47a76.56,76.56,0,0,0,10.73,3.29c1,.24,2.07.46,3.21.66,2.27.42,4.56.75,6.82,1,2,.21,4,.33,6,.36,1.13,0,2.25,0,3.38,0,2.14,0,4.19-.16,6.11-.36,2.27-.21,4.56-.54,6.82-1,1.15-.2,2.2-.42,3.21-.66a75.75,75.75,0,0,0,10.73-3.29c2-.78,3.92-1.61,5.71-2.47a79.15,79.15,0,0,0-2.33-143.8,76.57,76.57,0,0,0-8.36-3.15A79.5,79.5,0,0,0,200,83.16Z" fill="#093f68"></path><path d="M194.61,55.63c10.57-1.13,22.36.33,31.28,5.63A46.94,46.94,0,0,1,247,89.82a72.34,72.34,0,0,1,1.79,22.77c-.13,2-.89,18.61-3.54,18.58l-3.92,0-49.69-.58-26.44-.3c-1.8,0-4.19.57-5.89.07-2.4-.71-4.38-4.2-5.61-6.2-3.24-5.3-4.93-11.45-6-17.54a100.8,100.8,0,0,1-1.36-14.81c-.07-4,.17-8.3,2.43-11.64s7.17-5.19,10.46-2.86c.43-3.65,3.68-6.68,6.33-9.06A49.9,49.9,0,0,1,173,62.78a50.8,50.8,0,0,1,16.49-6.38C191.13,56.08,192.85,55.82,194.61,55.63Z" fill="#725858"></path><path d="M245.28,132.17h0l-80.05-.92a17.54,17.54,0,0,0-1.95.13,11.39,11.39,0,0,1-4.21-.1c-2.62-.78-4.62-4.07-5.94-6.24l-.24-.4c-2.9-4.74-4.83-10.42-6.08-17.9a101.35,101.35,0,0,1-1.38-14.95c-.07-4.24.19-8.65,2.6-12.22a10.22,10.22,0,0,1,6.4-4.2,7.27,7.27,0,0,1,4.19.38c1-3.5,4.19-6.33,6.37-8.28a50.25,50.25,0,0,1,7.49-5.55,51.31,51.31,0,0,1,16.81-6.5c1.71-.33,3.47-.59,5.24-.78h0c11.95-1.28,23.58.82,31.9,5.76A47.84,47.84,0,0,1,248,89.57a72.5,72.5,0,0,1,1.83,23.08l0,.61C248.76,130.64,246.93,132.17,245.28,132.17Zm-80.16-2.92h.1l79.94.92c.38-.36,1.78-2.65,2.61-17l0-.62A70.91,70.91,0,0,0,246,90.07a45.87,45.87,0,0,0-20.66-27.95c-8-4.72-19.13-6.73-30.66-5.5-1.72.19-3.43.44-5.08.77a49.25,49.25,0,0,0-16.16,6.24A48,48,0,0,0,166.29,69c-2.23,2-5.61,5-6,8.43a1,1,0,0,1-.59.79,1,1,0,0,1-1-.1,5.2,5.2,0,0,0-4-.75,8.15,8.15,0,0,0-5.1,3.36c-2.1,3.11-2.33,7.15-2.26,11.06a100,100,0,0,0,1.35,14.66c1.21,7.22,3.06,12.68,5.82,17.19l.24.4c1.09,1.8,2.92,4.81,4.8,5.36a10.06,10.06,0,0,0,3.44,0C163.75,129.32,164.46,129.25,165.12,129.25Zm29.49-73.62h0Z" fill="#093f68"></path><path d="M250.45,206.34v18.21a80.19,80.19,0,0,1-15.79,10q-2.83,1.37-5.78,2.5A77.21,77.21,0,0,1,218,240.39c-1.08.26-2.16.48-3.26.67q-3.39.65-6.89,1c-2,.21-4.1.32-6.19.36-.56,0-1.11,0-1.67,0s-1.18,0-1.76,0q-3.09-.06-6.1-.36-3.49-.33-6.89-1c-1.1-.19-2.18-.41-3.26-.67a77.21,77.21,0,0,1-10.87-3.33q-2.94-1.14-5.78-2.5a80.19,80.19,0,0,1-15.79-10V206.34c0-22.47,15.28-40.7,34.14-40.7h32.62C235.17,165.64,250.45,183.87,250.45,206.34Z" fill="#68e1fd"></path><path d="M200,243.43c-.6,0-1.2,0-1.79,0-2,0-4.11-.16-6.17-.37-2.31-.22-4.66-.55-7-1-1.17-.21-2.25-.43-3.3-.68a78.69,78.69,0,0,1-11-3.38c-2-.79-4-1.64-5.85-2.53a81.68,81.68,0,0,1-16-10.14,1,1,0,0,1-.37-.77V206.34c0-23,15.76-41.7,35.14-41.7h32.62c19.38,0,35.14,18.71,35.14,41.7v18.21a1,1,0,0,1-.37.77,81.68,81.68,0,0,1-16,10.14c-1.83.89-3.8,1.74-5.85,2.53a78.69,78.69,0,0,1-11,3.38c-1.05.25-2.13.47-3.31.68-2.31.43-4.66.76-7,1-2,.21-4.08.33-6.26.37C201.13,243.42,200.57,243.43,200,243.43Zm-49.45-19.36a79.34,79.34,0,0,0,15.23,9.59c1.79.86,3.71,1.69,5.7,2.47a76.56,76.56,0,0,0,10.73,3.29c1,.24,2.07.46,3.21.66,2.27.42,4.56.75,6.82,1,2,.21,4,.33,6,.36,1.13,0,2.25,0,3.38,0,2.14,0,4.19-.16,6.11-.36,2.27-.21,4.56-.54,6.82-1,1.15-.2,2.2-.42,3.21-.66a75.75,75.75,0,0,0,10.73-3.29c2-.78,3.92-1.61,5.71-2.47a79.34,79.34,0,0,0,15.23-9.59V206.34c0-21.89-14.87-39.7-33.14-39.7H183.69c-18.27,0-33.14,17.81-33.14,39.7Zm99.9.48h0Z" fill="#093f68"></path><polyline points="192.71 166.62 192.71 158.65 206.55 158.65 206.55 166.62" fill="#ffc9b0"></polyline><path d="M206.55,167.62a1,1,0,0,1-1-1v-7H193.71v7a1,1,0,0,1-2,0v-8a1,1,0,0,1,1-1h13.84a1,1,0,0,1,1,1v8A1,1,0,0,1,206.55,167.62Z" fill="#093f68"></path><ellipse cx="160.08" cy="122.7" rx="13.45" ry="11.59" fill="#ffc9b0"></ellipse><path d="M160.08,135.29c-8,0-14.45-5.65-14.45-12.59s6.48-12.58,14.45-12.58,14.44,5.64,14.44,12.58S168,135.29,160.08,135.29Zm0-23.17c-6.87,0-12.45,4.75-12.45,10.58s5.58,10.59,12.45,10.59,12.44-4.75,12.44-10.59S166.94,112.12,160.08,112.12Z" fill="#093f68"></path><ellipse cx="238.47" cy="122.7" rx="13.45" ry="11.59" fill="#ffc9b0"></ellipse><path d="M238.47,135.29c-8,0-14.45-5.65-14.45-12.59s6.48-12.58,14.45-12.58,14.44,5.64,14.44,12.58S246.43,135.29,238.47,135.29Zm0-23.17c-6.87,0-12.45,4.75-12.45,10.58s5.58,10.59,12.45,10.59,12.44-4.75,12.44-10.59S245.33,112.12,238.47,112.12Z" fill="#093f68"></path><path d="M199.63,160.47h0a40.56,40.56,0,0,1-40.56-40.56V105.17c0-10.22,3.54-17.32,12.21-17.71S200.6,99.71,214.75,100c5.84.11,24.19-7.26,24.67,3.16l.76,16.8A40.55,40.55,0,0,1,199.63,160.47Z" fill="#ffc9b0"></path><path d="M199.63,161.47a41.61,41.61,0,0,1-41.56-41.56V105.17c0-11.85,4.56-18.32,13.17-18.71,4.11-.18,10.5,2.34,17.92,5.25,8.48,3.33,18.09,7.11,25.61,7.24a36.28,36.28,0,0,0,6.3-1c5.94-1.2,13.34-2.69,17.07.22a6.23,6.23,0,0,1,2.28,4.85l.76,16.81A41.61,41.61,0,0,1,199.63,161.47Zm-28-73h-.34c-7.47.33-11.26,6-11.26,16.71v14.74a39.56,39.56,0,1,0,79.11,0l-.76-16.76a4.23,4.23,0,0,0-1.52-3.36c-3-2.34-10.18-.89-15.43.16a37.15,37.15,0,0,1-6.73,1c-7.88-.13-17.68-4-26.31-7.38C181.73,90.94,175.39,88.45,171.67,88.45Z" fill="#093f68"></path><path d="M165.34,235.56a1,1,0,0,1-1-1V197a1,1,0,0,1,2,0v37.54A1,1,0,0,1,165.34,235.56Z" fill="#093f68"></path><path d="M234.66,235.56a1,1,0,0,1-1-1V197a1,1,0,0,1,2,0v37.54A1,1,0,0,1,234.66,235.56Z" fill="#093f68"></path><polygon points="213.35 165.64 206.42 206.78 200.83 239.98 194.27 205.59 186.65 165.64 213.35 165.64" fill="#fff"></polygon><path d="M200.83,241a1,1,0,0,1-1-.81l-14.18-74.34a1,1,0,0,1,1-1.19h26.7a1,1,0,0,1,.76.35,1,1,0,0,1,.23.82l-12.52,74.34a1,1,0,0,1-1,.83Zm-13-74.34,12.91,67.68,11.4-67.68Z" fill="#093f68"></path><polygon points="206.42 206.78 200.83 239.98 194.27 205.59 198.49 168.85 198.56 168.26 198.56 168.24 201.44 168.24 201.44 168.26 201.51 168.85 206.42 206.78" fill="#ffbc0e"></polygon><path d="M200.83,241a1,1,0,0,1-1-.81l-6.56-34.39a1,1,0,0,1,0-.3l4.29-37.32a1,1,0,0,1,1-.92h2.88a1,1,0,0,1,1,1l.06.49,4.91,37.92a1.5,1.5,0,0,1,0,.3l-5.59,33.2a1,1,0,0,1-1,.83Zm-5.55-35.43,5.49,28.77,4.64-27.56-4.86-37.52h-1.1Z" fill="#093f68"></path><rect x="194.08" y="166.24" width="11.63" height="11.04" rx="2.91" fill="#ffbc0e"></rect><path d="M202.81,178.28H197a3.91,3.91,0,0,1-3.91-3.9v-5.24a3.91,3.91,0,0,1,3.91-3.9h5.82a3.91,3.91,0,0,1,3.91,3.9v5.24A3.91,3.91,0,0,1,202.81,178.28Zm-5.82-11a1.91,1.91,0,0,0-1.91,1.9v5.24a1.91,1.91,0,0,0,1.91,1.9h5.82a1.91,1.91,0,0,0,1.91-1.9v-5.24a1.91,1.91,0,0,0-1.91-1.9Z" fill="#093f68"></path><circle cx="181.7" cy="120.32" r="3.55" fill="#093f68"></circle><circle cx="218.3" cy="120.32" r="3.55" fill="#093f68"></circle><path d="M200,133.25a23.42,23.42,0,0,1-3.44-.28,1,1,0,0,1-.81-1.16,1,1,0,0,1,1.16-.81,16.86,16.86,0,0,0,5.37,0c.31-.92-1-4.82-3-8.52a1,1,0,1,1,1.77-.93c1,1.85,4,8.06,3,10.34a1.78,1.78,0,0,1-1.22,1A11.83,11.83,0,0,1,200,133.25Z" fill="#093f68"></path><path d="M200,145.13c-9.72,0-13.55-1.39-13.71-1.44a1,1,0,0,1,.71-1.88s3.72,1.32,13,1.32,13-1.31,13-1.32a1,1,0,0,1,.7,1.88C213.55,143.74,209.72,145.13,200,145.13Z" fill="#093f68"></path><path d="M187.75,110.6H171.28a1.59,1.59,0,0,1,0-3.18h16.47a1.59,1.59,0,0,1,0,3.18Z" fill="#093f68"></path><path d="M228.72,110.6H212.25a1.59,1.59,0,0,1,0-3.18h16.47a1.59,1.59,0,0,1,0,3.18Z" fill="#093f68"></path><rect x="137.14" y="186.01" width="17.12" height="17.12" fill="#ffc9b0"></rect><path d="M154.26,204.13H137.14a1,1,0,0,1-1-1V186a1,1,0,0,1,1-1h17.12a1,1,0,0,1,1,1v17.12A1,1,0,0,1,154.26,204.13Zm-16.12-2h15.12V187H138.14Z" fill="#093f68"></path><path d="M170.11,219.63a1,1,0,0,1-1-1v-18a1,1,0,1,1,2,0v18A1,1,0,0,1,170.11,219.63Z" fill="#093f68"></path><path d="M159.85,197.05a2,2,0,0,1-2-2v-5.46c0-1.41-1.58-2.61-3.45-2.61H136.28c-1.86,0-3.44,1.2-3.44,2.61v5.46a2,2,0,0,1-4,0v-5.46c0-3.64,3.34-6.61,7.44-6.61H154.4c4.11,0,7.45,3,7.45,6.61v5.46A2,2,0,0,1,159.85,197.05Z" fill="#093f68"></path><rect x="108.04" y="195.05" width="74.61" height="49.71" rx="3.69" fill="#f56132"></rect><path d="M179,245.76H111.73a4.7,4.7,0,0,1-4.69-4.69V198.75a4.71,4.71,0,0,1,4.69-4.7H179a4.71,4.71,0,0,1,4.7,4.7v42.32A4.7,4.7,0,0,1,179,245.76Zm-67.22-49.71a2.7,2.7,0,0,0-2.69,2.7v42.32a2.7,2.7,0,0,0,2.69,2.69H179a2.7,2.7,0,0,0,2.7-2.69V198.75a2.7,2.7,0,0,0-2.7-2.7Z" fill="#093f68"></path><path d="M172.14,212.72h-53.6a7.33,7.33,0,0,1-7.05-5.35L108.86,198a2.29,2.29,0,0,1,2.2-2.91h68.56a2.29,2.29,0,0,1,2.21,2.91l-2.64,9.41A7.31,7.31,0,0,1,172.14,212.72Z" fill="#f56132"></path><path d="M172.14,213.72h-53.6a8.35,8.35,0,0,1-8-6.08l-2.64-9.41a3.3,3.3,0,0,1,3.17-4.18h68.56a3.29,3.29,0,0,1,3.17,4.18l-2.64,9.41A8.34,8.34,0,0,1,172.14,213.72Zm-61.08-17.67a1.29,1.29,0,0,0-1.24,1.64l2.64,9.41a6.34,6.34,0,0,0,6.08,4.62h53.6a6.34,6.34,0,0,0,6.09-4.62l2.64-9.41a1.28,1.28,0,0,0-.22-1.13,1.3,1.3,0,0,0-1-.51Z" fill="#093f68"></path><rect x="143.27" y="207.79" width="4.15" height="10.68" rx="1.11" fill="#ffbc0e"></rect><path d="M146.3,219.47h-1.92a2.12,2.12,0,0,1-2.11-2.12V208.9a2.12,2.12,0,0,1,2.11-2.11h1.92a2.12,2.12,0,0,1,2.12,2.11v8.45A2.12,2.12,0,0,1,146.3,219.47Zm-1.92-10.68a.11.11,0,0,0-.11.11v8.45a.11.11,0,0,0,.11.12h1.92a.12.12,0,0,0,.12-.12V208.9a.11.11,0,0,0-.12-.11Z" fill="#093f68"></path><rect x="136.39" y="178.42" width="4.38" height="11.47" rx="2.19" fill="#ffc9b0"></rect><path d="M138.58,190.9a3.2,3.2,0,0,1-3.19-3.2v-7.09a3.19,3.19,0,1,1,6.38,0v7.09A3.2,3.2,0,0,1,138.58,190.9Zm0-11.48a1.2,1.2,0,0,0-1.19,1.19v7.09a1.19,1.19,0,1,0,2.38,0v-7.09A1.19,1.19,0,0,0,138.58,179.42Z" fill="#093f68"></path><rect x="140.77" y="178.42" width="4.38" height="11.47" rx="2.19" fill="#ffc9b0"></rect><path d="M143,190.9a3.2,3.2,0,0,1-3.19-3.2v-7.09a3.2,3.2,0,0,1,6.39,0v7.09A3.21,3.21,0,0,1,143,190.9Zm0-11.48a1.2,1.2,0,0,0-1.19,1.19v7.09a1.2,1.2,0,1,0,2.39,0v-7.09A1.2,1.2,0,0,0,143,179.42Z" fill="#093f68"></path><rect x="145.16" y="178.42" width="4.38" height="11.47" rx="2.19" fill="#ffc9b0"></rect><path d="M147.35,190.9a3.2,3.2,0,0,1-3.19-3.2v-7.09a3.19,3.19,0,1,1,6.38,0v7.09A3.2,3.2,0,0,1,147.35,190.9Zm0-11.48a1.19,1.19,0,0,0-1.19,1.19v7.09a1.19,1.19,0,1,0,2.38,0v-7.09A1.2,1.2,0,0,0,147.35,179.42Z" fill="#093f68"></path><rect x="149.54" y="178.42" width="4.38" height="11.47" rx="2.19" fill="#ffc9b0"></rect><path d="M151.73,190.9a3.2,3.2,0,0,1-3.19-3.2v-7.09a3.19,3.19,0,1,1,6.38,0v7.09A3.2,3.2,0,0,1,151.73,190.9Zm0-11.48a1.19,1.19,0,0,0-1.19,1.19v7.09a1.19,1.19,0,1,0,2.38,0v-7.09A1.19,1.19,0,0,0,151.73,179.42Z" fill="#093f68"></path><rect x="146.51" y="185.4" width="4.38" height="11.47" rx="2.19" transform="translate(339.84 42.44) rotate(90)" fill="#ffc9b0"></rect><path d="M152.25,194.33h-7.09a3.19,3.19,0,1,1,0-6.38h7.09a3.19,3.19,0,0,1,0,6.38ZM145.16,190a1.19,1.19,0,1,0,0,2.38h7.09a1.19,1.19,0,0,0,0-2.38Z" fill="#093f68"></path></g></svg>