<svg id="Layer_1" data-name="Layer 1" xmlns="http://www.w3.org/2000/svg" viewBox="0 0 400 300" width="406" height="306" class="illustration styles_illustrationTablet__1DWOa"><title>_</title><path d="M293,65.06c33.74,9.61,59.78,37,66.38,71.35,5.56,29-4.16,64.66-59.78,81.5-56.76,17.2-215.28,26.18-244.46-20.68S32.56,90,93.1,68.31C135.54,53.1,227.17,46.29,293,65.06Z" fill="#e6e6e6" opacity="0.3"></path><ellipse cx="96.65" cy="239.99" rx="11.32" ry="2.51" fill="#e6e6e6"></ellipse><ellipse cx="321.27" cy="239.85" rx="40.34" ry="6.48" fill="#e6e6e6" opacity="0.45"></ellipse><rect x="60.23" y="59.61" width="251.82" height="147.66" fill="#e6e6e6"></rect><path d="M123.77,188.25a32.55,32.55,0,1,1,32.54-32.54A32.58,32.58,0,0,1,123.77,188.25Zm0-56.32a23.78,23.78,0,1,0,23.78,23.78A23.8,23.8,0,0,0,123.77,131.93Z" fill="#c9c9c9"></path><path d="M123.77,188.25a32.5,32.5,0,0,1-21.59-8.19L108,173.5a23.77,23.77,0,0,0,15.78,6Z" fill="#c9c9c9"></path><path d="M156.31,155.71h-8.76a23.8,23.8,0,0,0-23.78-23.78v-8.77A32.58,32.58,0,0,1,156.31,155.71Z" fill="#24285b"></path><path d="M123.77,188.25v-8.76a23.81,23.81,0,0,0,23.78-23.78h8.76A32.58,32.58,0,0,1,123.77,188.25Z" fill="#ffd200"></path><path d="M124.48,145.18c.58,0,.76.2.76.78v1.23a5.6,5.6,0,0,1,4.62,3.49c.3.6.18.93-.5,1.23l-1.23.55c-.58.28-.86.15-1.18-.45a3.15,3.15,0,0,0-3.22-1.93c-2.14,0-3.12.62-3.12,2.06a1.9,1.9,0,0,0,1.74,1.68,15,15,0,0,0,1.81.28,11.45,11.45,0,0,1,3.34.65,4.66,4.66,0,0,1,1.48.8,4.84,4.84,0,0,1,1.33,3.52c0,2.74-1.83,4.6-5.07,5.08v1.31c0,.57-.18.78-.76.78H123.1c-.58,0-.78-.21-.78-.78v-1.29a5.69,5.69,0,0,1-5-3.87.81.81,0,0,1,.58-1.15l1.23-.45c.62-.23.9-.08,1.18.55a3.27,3.27,0,0,0,3.39,2.11c2.31,0,3.47-.73,3.47-2.21a1.54,1.54,0,0,0-1.08-1.56,8.44,8.44,0,0,0-2.49-.48,10.83,10.83,0,0,1-3.37-.73,4.46,4.46,0,0,1-1.45-.83,4.53,4.53,0,0,1-1.36-3.41c0-2.72,1.71-4.53,4.92-4.95V146c0-.58.2-.78.78-.78Z" fill="#a5a5a5"></path><rect x="179.51" y="141.32" width="15.29" height="47.21" fill="#a5a5a5"></rect><rect x="246.49" y="130.55" width="15.29" height="57.98" fill="#c9c9c9"></rect><rect x="202.03" y="103.63" width="15.29" height="84.89" fill="#c9c9c9"></rect><rect x="224.76" y="76.3" width="15.29" height="112.22" fill="#a5a5a5"></rect><polygon points="268.89 126.21 248.21 106.55 247.53 107.48 268.21 127.83 268.89 126.21" fill="#24285b"></polygon><path d="M319.69,109.53s-13.12-1.75-15.76,9.22-3,26.17-13.56,29.21S274,129.91,274,129.91s-2.45-5.92-5.08-6.73-4.52,5,0,8.61c0,0,3.81,26.93,24,26S319.69,129.07,319.69,109.53Z" fill="#f4a28c"></path><path d="M319.69,109.53s-13.12-1.75-15.76,9.22-3,26.17-13.56,29.21S274,129.91,274,129.91s-2.45-5.92-5.08-6.73-4.52,5,0,8.61c0,0,3.81,26.93,24,26S319.69,129.07,319.69,109.53Z" opacity="0.08"></path><path d="M319.69,109.53s-14.09-2.78-16.07,8.61a85.43,85.43,0,0,1-5.46,19l10.77,3.49Z" fill="#68e1fd"></path><path d="M319.69,109.53s-14.09-2.78-16.07,8.61a85.43,85.43,0,0,1-5.46,19l10.77,3.49Z" fill="#fff" opacity="0.46"></path><path d="M320.31,90.44A29.35,29.35,0,0,0,317.93,98a2.39,2.39,0,0,0,2.14,2.63,5.28,5.28,0,0,0,5.25-2.3l2.78-3.4a4.27,4.27,0,0,0-.18-4.94C326.07,87.23,321.41,87.76,320.31,90.44Z" fill="#f4a28c"></path><polygon points="326.37 95.68 327.36 109.53 319.69 109.53 321.99 99.71 326.37 95.68" fill="#f4a28c"></polygon><path d="M319,93.69l-1.67,1.12a.68.68,0,0,0,0,1.15l1.41.85Z" fill="#f4a28c"></path><path d="M321.93,100a5.17,5.17,0,0,0,2.49-1.2s.5,3-3.15,4Z" fill="#ce8172" opacity="0.31"></path><path d="M324.24,95.5s.67-1.7,1.91-1.09.29,3.08-1.55,2.66Z" fill="#f4a28c"></path><path d="M319.69,109.53h7.67s.53,0,1.43,0c16.73.53,26.44,19.11,17.56,33.29-4.94,7.89-10.84,18.53-11.23,24.88l-29.81-1.51s2.26-19.33-3.27-30.38C302,135.81,291.89,118.41,319.69,109.53Z" fill="#68e1fd"></path><path d="M333,119.65s-3.7,7.67-4.58,21.45-22.17,6.17-22.17,6.17l-.6,14.11L336.1,163l2.53-9.23S346.62,139.47,333,119.65Z" opacity="0.08"></path><path d="M333.26,121.13a6.49,6.49,0,0,1,11.5-4.38,27.83,27.83,0,0,1,6.42,18.52c-.25,18-2.68,37.58-41.6,16.23l2.1-5.72s17.27,8.31,24.49,5.61C341.47,149.41,333.81,133.52,333.26,121.13Z" fill="#f4a28c"></path><path d="M311.68,145.78s-6.5-3.08-9.26,0,1.63,5.85,7.16,5.72Z" fill="#f4a28c"></path><path d="M319.55,88.16l-1.49,3.74,6.18,2.38s.35,4.16-1.83,4.91a3.73,3.73,0,0,0,2.65-1.28,1.48,1.48,0,0,1,2.07-.13l.08.07a13.33,13.33,0,0,0,3.6-6.37c.7-3.67-3.39-4.24-3.39-4.24S322,83.43,319.55,88.16Z" fill="#24285b"></path><path d="M327.42,87.24s.28-3.53,6.64-3,0,9.14,5.22,17.14c0,0-9.6-2-9.88-10.65Z" fill="#24285b"></path><path d="M327,87a2.81,2.81,0,0,1,3.07.26c1.8,1.14,2.6,5.3-.23,6.73C329.86,94,332.21,88.34,327,87Z" fill="#ffd200"></path><path d="M335.73,140.65h16.58s1.82-24.2-11.9-27.29S335.73,140.65,335.73,140.65Z" fill="#68e1fd"></path><path d="M335.73,140.65h16.58s1.82-24.2-11.9-27.29S335.73,140.65,335.73,140.65Z" fill="#fff" opacity="0.46"></path><rect x="296.59" y="164.74" width="50.84" height="74.01" fill="#24285b"></rect><rect x="292.3" y="159.58" width="58.88" height="5.17" fill="#24285b"></rect><path d="M315,147.33a1.65,1.65,0,0,0-2.34,0l-2,2a1.65,1.65,0,0,0-.32,1.87,7,7,0,0,0-1.72,4.61v3.74h.91v-3.74a6.11,6.11,0,0,1,1.4-3.92,1.66,1.66,0,0,0,2.08-.22l2-2A1.65,1.65,0,0,0,315,147.33Z" fill="#24285b"></path><path d="M321.5,147.33a1.66,1.66,0,0,0-2.35,0l-2,2a1.65,1.65,0,0,0-.32,1.87,7,7,0,0,0-1.72,4.61v3.74h.9v-3.74a6.12,6.12,0,0,1,1.41-3.92,1.66,1.66,0,0,0,2.08-.22l2-2A1.65,1.65,0,0,0,321.5,147.33Z" fill="#24285b"></path><path d="M328,147.33a1.66,1.66,0,0,0-2.35,0l-2,2a1.65,1.65,0,0,0-.33,1.87,7,7,0,0,0-1.72,4.61v3.74h.91v-3.74a6.12,6.12,0,0,1,1.41-3.92,1.64,1.64,0,0,0,2.07-.22l2-2A1.67,1.67,0,0,0,328,147.33Z" fill="#24285b"></path><rect x="90.54" y="104.4" width="66.46" height="4.39" fill="#fff" opacity="0.46"></rect><rect x="90.54" y="76.84" width="64.41" height="8.78" fill="#fff" opacity="0.46"></rect><rect x="90.54" y="91.16" width="90.94" height="4.39" fill="#fff" opacity="0.46"></rect><path d="M94.89,229.9s-7.85-2.15-9.56-9.46c0,0,12.17-2.45,12.51,10.1Z" fill="#68e1fd" opacity="0.58"></path><path d="M95.85,229.12s-5.48-8.67-.65-16.78c0,0,9.25,5.87,5.14,16.8Z" fill="#68e1fd" opacity="0.73"></path><path d="M97.27,229.12s2.9-9.15,11.66-10.89c0,0,1.64,6-5.68,10.92Z" fill="#68e1fd"></path><polygon points="91.57 228.92 93.16 239.81 103.19 239.85 104.67 228.97 91.57 228.92" fill="#24285b"></polygon></svg>