<svg xmlns="http://www.w3.org/2000/svg" viewBox="0 0 400 300" width="406" height="306" class="illustration styles_illustrationTablet__1DWOa"><g id="_05_businessman_outline" data-name="#05_businessman_outline"><path d="M240.58,224.77H163.43a1,1,0,0,1-1-1V56.69a1,1,0,0,1,1-1h77.15a1,1,0,0,1,1,1V223.77A1,1,0,0,1,240.58,224.77Zm-76.15-2h75.15V57.69H164.43Z" fill="#dfeaef"></path><path d="M288.12,224.77H240.58a1,1,0,0,1-1-1V158a1,1,0,0,1,1-1h47.54a1,1,0,0,1,1,1v65.8A1,1,0,0,1,288.12,224.77Zm-46.54-2h45.54V159H241.58Z" fill="#dfeaef"></path><path d="M318.73,224.77H288.12a1,1,0,0,1-1-1V150.86a1,1,0,0,1,.84-1l30.61-5.13a1,1,0,0,1,.81.22,1,1,0,0,1,.35.77v78A1,1,0,0,1,318.73,224.77Zm-29.61-2h28.61V146.91l-28.61,4.79Z" fill="#dfeaef"></path><path d="M163.43,225H102.6a1,1,0,0,1-1-1V111.87a1,1,0,0,1,1-1h60.83a1,1,0,0,1,1,1V224A1,1,0,0,1,163.43,225Zm-59.83-2h58.83V112.87H103.6Z" fill="#dfeaef"></path><path d="M326.43,224.77H90.48a1,1,0,1,1,0-2h236a1,1,0,0,1,0,2Z" fill="#dfeaef"></path><path d="M262.37,228.28c.09.71,5,8.92,5,8.92l9.33-5.62-5.3-7.81Z" fill="#fff"></path><path d="M267.37,238.2a1,1,0,0,1-.24,0,1,1,0,0,1-.62-.46c-5-8.38-5.1-9.07-5.13-9.29a1,1,0,0,1,.54-1l9-4.52a1,1,0,0,1,1.27.34l5.3,7.81a1,1,0,0,1,.15.77,1,1,0,0,1-.46.64l-9.32,5.62A1,1,0,0,1,267.37,238.2Zm-3.7-9.45c.7,1.35,2.38,4.26,4.05,7.07l7.56-4.55-4.22-6.22Zm-1.3-.47h0Z" fill="#093f68"></path><path d="M266.4,236.71l5,7.24,16.72-11.55s-4.75-5-12.55-2Z" fill="#ad7972"></path><path d="M271.4,245a1,1,0,0,1-.82-.43l-5-7.24a1,1,0,0,1,.25-1.39l9.18-6.35.21-.11c8.32-3.13,13.41,2,13.63,2.28a1,1,0,0,1,.27.79,1,1,0,0,1-.43.72L272,244.77A1,1,0,0,1,271.4,245Zm-3.61-8,3.87,5.6,14.81-10.24A11,11,0,0,0,276,231.26Z" fill="#093f68"></path><path d="M172,226.85c-.7.14-8.59,5.56-8.59,5.56l6.2,9,7.46-5.78Z" fill="#fff"></path><path d="M169.63,242.36h-.15a1,1,0,0,1-.67-.42l-6.2-9a1,1,0,0,1,.26-1.4c8-5.53,8.73-5.66,8.95-5.71a1,1,0,0,1,1.06.48l5.07,8.73a1,1,0,0,1-.25,1.29l-7.46,5.78A1,1,0,0,1,169.63,242.36Zm-4.8-9.7,5,7.26,5.93-4.59-4.15-7.15C170.33,229,167.53,230.82,164.83,232.66Z" fill="#093f68"></path><rect x="126.85" y="190.3" width="38.49" height="26.45" rx="3.37" transform="translate(49.18 -27.5) rotate(12.91)" fill="#ffbc0e"></rect><path d="M159.37,221.06a4,4,0,0,1-1-.12l-31-7.09a4.39,4.39,0,0,1-3.28-5.23l4.41-19.23a4.37,4.37,0,0,1,5.23-3.28l31,7.1a4.38,4.38,0,0,1,3.28,5.23l-4.41,19.23a4.38,4.38,0,0,1-4.25,3.39ZM132.82,188a2.38,2.38,0,0,0-2.31,1.84l-4.41,19.22a2.38,2.38,0,0,0,1.78,2.84l31,7.09h0a2.37,2.37,0,0,0,2.84-1.77L166.08,198a2.37,2.37,0,0,0-.3-1.78,2.34,2.34,0,0,0-1.48-1.05l-31-7.1A2.46,2.46,0,0,0,132.82,188Z" fill="#093f68"></path><path d="M157.19,193.5l-.23,0-14.82-3.4a1,1,0,0,1-.62-.44,1,1,0,0,1-.13-.76l.75-3.27a4.19,4.19,0,0,1,5-3.14l8.61,2a4.19,4.19,0,0,1,3.15,5l-.75,3.27A1,1,0,0,1,157.19,193.5Zm-13.63-5.15,12.87,3L157,189a2.19,2.19,0,0,0-1.64-2.62l-8.61-2a2.19,2.19,0,0,0-2.62,1.64Z" fill="#093f68"></path><path d="M131.88,190.49h31.76a3.37,3.37,0,0,1,3.37,3.37v2.68a5.5,5.5,0,0,1-5.5,5.5H134a5.5,5.5,0,0,1-5.5-5.5v-2.68a3.37,3.37,0,0,1,3.37-3.37Z" transform="translate(47.6 -28.06) rotate(12.91)" fill="#ffbc0e"></path><path d="M161.1,206.1a6.6,6.6,0,0,1-1.46-.16l-26.79-6.15A6.51,6.51,0,0,1,128,192l.6-2.61a4.37,4.37,0,0,1,5.23-3.28l31,7.1a4.38,4.38,0,0,1,3.28,5.23l-.6,2.61a6.5,6.5,0,0,1-6.33,5ZM132.82,188a2.38,2.38,0,0,0-2.31,1.84l-.6,2.61a4.51,4.51,0,0,0,3.38,5.39L160.08,204h0a4.52,4.52,0,0,0,5.4-3.38l.6-2.62a2.37,2.37,0,0,0-.3-1.78,2.34,2.34,0,0,0-1.48-1.05l-31-7.1A2.46,2.46,0,0,0,132.82,188Z" fill="#093f68"></path><path d="M146,205l-.23,0a1,1,0,0,1-.75-1.2l1-4.25a1,1,0,0,1,1.2-.75,1,1,0,0,1,.75,1.2l-1,4.25A1,1,0,0,1,146,205Z" fill="#093f68"></path><path d="M245.93,125.63s-1.83-4.5-2.53-5.63-4.23-3.52-4-5.35,5.78-13.92,10.28-12.1,2.25,9.81,2.11,11.45,3,9.8,3,9.8Z" fill="#ffc9b0"></path><path d="M245.93,126.63A1,1,0,0,1,245,126c-.5-1.23-1.91-4.62-2.45-5.48a9.63,9.63,0,0,0-1.15-1.2c-1.43-1.37-3.21-3.07-2.93-4.83s4-10.17,8.09-12.49a3.94,3.94,0,0,1,3.55-.38c4.58,1.85,3.4,8.56,2.89,11.43-.08.45-.14.8-.16,1-.08.88,1.44,5.54,2.89,9.37a1,1,0,0,1,0,.83,1,1,0,0,1-.68.5l-8.87,1.83Zm2.85-23.26a2.56,2.56,0,0,0-1.23.38c-3.4,1.93-6.92,9.82-7.11,11-.11.74,1.48,2.26,2.34,3.08a9.28,9.28,0,0,1,1.46,1.59,52.65,52.65,0,0,1,2.3,5l6.91-1.42c-1-2.65-2.73-7.67-2.6-9.15,0-.26.09-.67.18-1.2.46-2.59,1.41-8-1.67-9.23A1.66,1.66,0,0,0,248.78,103.37Z" fill="#093f68"></path><path d="M261.31,232.41C242.23,201,213.4,183.15,213.11,183l7.27-12c1.3.79,32,19.65,52.9,54.13Z" fill="#093f68"></path><path d="M261.31,233.41a1,1,0,0,1-.85-.49c-19-31.26-47.58-48.91-47.87-49.09a1,1,0,0,1-.33-1.37l7.27-12a1,1,0,0,1,1.37-.33c1.3.79,32.19,19.78,53.23,54.47a1,1,0,0,1,.12.75,1,1,0,0,1-.45.62l-12,7.26A1,1,0,0,1,261.31,233.41Zm-46.83-50.75c4.87,3.17,29.78,20.2,47.16,48.37l10.26-6.22c-19.1-31-46-49.1-51.19-52.41Z" fill="#093f68"></path><path d="M175.92,238.91l-8.25-12.59c25.1-14.3,21.83-53.33,21.79-53.69l13.87-1.88a60.78,60.78,0,0,1,.48,24.43C200.39,213.41,189.88,231,175.92,238.91Z" fill="#093f68"></path><path d="M175.92,239.91a1,1,0,0,1-.84-.45l-8.25-12.59a1,1,0,0,1-.14-.78,1,1,0,0,1,.48-.63c24.6-14,21.33-52.34,21.29-52.72a1,1,0,0,1,.86-1.11l13.88-1.87a1,1,0,0,1,1.12.86l.05.21a61.67,61.67,0,0,1,.42,24.53c-3.6,19.21-14.74,36.65-28.38,44.42A1,1,0,0,1,175.92,239.91Zm-6.84-13.26,7.15,10.92c12.78-7.72,23.17-24.3,26.6-42.58a59.78,59.78,0,0,0-.28-23.12l-12,1.62A87.38,87.38,0,0,1,189,194.44C186,209.42,179.11,220.52,169.08,226.65Z" fill="#093f68"></path><path d="M200.59,187.29S217.22,190,223.88,178l-5-8.53H195.25Z" fill="#093f68"></path><path d="M204.62,188.56a27.8,27.8,0,0,1-4.19-.28,1,1,0,0,1-.8-.7l-5.34-17.86a1,1,0,0,1,.16-.89,1,1,0,0,1,.8-.4H218.9a1,1,0,0,1,.86.5l5,8.52a1,1,0,0,1,0,1c-2.88,5.21-8,8.57-14.86,9.7A32.66,32.66,0,0,1,204.62,188.56Zm-3.26-2.18c2.94.32,15.68,1.1,21.37-8.42l-4.4-7.53H196.59Z" fill="#093f68"></path><path d="M163.86,231.4,157,236.85l12.58,16s4.65-5.06,1.24-12.66Z" fill="#ad7972"></path><path d="M169.53,253.82h0a1,1,0,0,1-.75-.37l-12.58-16a1,1,0,0,1,.17-1.4l6.91-5.45a1,1,0,0,1,.74-.21,1.05,1.05,0,0,1,.67.37l6.9,8.76a2.39,2.39,0,0,1,.13.21c3.64,8.11-1.21,13.52-1.42,13.74A1,1,0,0,1,169.53,253.82ZM158.35,237l11.15,14.14a10.94,10.94,0,0,0,.4-10.47l-6.21-7.88Z" fill="#093f68"></path><path d="M160.4,174.48s-1.87,4.63-1.78,5.61,1.76,6,.16,5.62a8.76,8.76,0,0,1-2.55-1s-.82,5.95-3.53,5.88-7.93-3.32-7.78-5.63,1.74-7.5,3.79-7.91,5.11-8.09,5.11-8.09Z" fill="#ffc9b0"></path><path d="M152.75,191.59h-.08c-2.21-.06-5.63-1.81-7.47-3.82a4,4,0,0,1-1.28-2.88c.15-2.28,1.73-8.25,4.59-8.82.82-.2,2.87-3.7,4.38-7.48a1,1,0,0,1,.68-.6,1,1,0,0,1,.89.2l6.58,5.52a1,1,0,0,1,.29,1.14,30.11,30.11,0,0,0-1.71,5.16c0,.14.13.65.24,1.09.62,2.59,1,4.35.09,5.22a1.44,1.44,0,0,1-1.4.36,11.92,11.92,0,0,1-1.58-.5C156.51,188.17,155.33,191.59,152.75,191.59Zm1.47-21c-1.19,2.77-3.33,7-5.32,7.43-1.19.24-2.82,4.43-3,7a2.31,2.31,0,0,0,.76,1.4c1.44,1.58,4.38,3.12,6,3.17h0c1.18,0,2.21-2.91,2.5-5a1,1,0,0,1,.58-.77,1,1,0,0,1,1,.07,7.45,7.45,0,0,0,1.69.72,19.94,19.94,0,0,0-.56-3,11.26,11.26,0,0,1-.28-1.38c-.09-.94.85-3.56,1.57-5.4Z" fill="#093f68"></path><path d="M254.54,117.91l-11.06,6.83c4.64,7.51,6.11,11.58,6.56,13.55-4.39-.45-18.24-6.53-24.45-10.25s-35.26.9-35.26.9c-12.34,3-29.21,15.58-41.11,42.4l11.89,5.27c8.09-18.25,19.54-29.87,27.33-33.26v30h37.88l.32-31.14c2.59,1.34,4,3.14,7.38,4.59,5.39,2.3,11.54,4.51,16.94,4.51a12.33,12.33,0,0,0,9.18-3.44C267.16,140.72,260.84,128.1,254.54,117.91Z" fill="#68e1fd"></path><path d="M161.11,177.61a1.15,1.15,0,0,1-.41-.08l-11.88-5.27a1,1,0,0,1-.51-1.32c15.13-34.13,35.81-41.52,41.79-43,1.28-.2,29.55-4.64,36-.78,5.6,3.35,17.26,8.51,22.53,9.83a60.82,60.82,0,0,0-6-11.74,1,1,0,0,1,.33-1.38L254,117.06a1,1,0,0,1,1.37.33c6.49,10.5,13,23.54,5.46,31.2-2.43,2.48-5.76,3.74-9.89,3.74-5.83,0-12.32-2.45-17.33-4.59a21.63,21.63,0,0,1-4.7-2.82c-.44-.33-.86-.64-1.31-.94l-.3,29.4a1,1,0,0,1-1,1H188.44a1,1,0,0,1-1-1V145c-7.52,4-17.9,15.1-25.42,32.07a1,1,0,0,1-.55.53A1.13,1.13,0,0,1,161.11,177.61Zm-10.56-6.77,10,4.45c8.2-18,19.63-29.46,27.44-32.86a1,1,0,0,1,1,.08,1,1,0,0,1,.45.84v29h35.89l.31-30.16a1,1,0,0,1,1.47-.87,21.35,21.35,0,0,1,3,2,20.16,20.16,0,0,0,4.31,2.59c4.83,2.06,11.07,4.43,16.54,4.43,3.62,0,6.39-1,8.46-3.14,6.36-6.48.72-18.18-5.21-27.9l-9.36,5.78c4.21,6.92,5.68,10.88,6.17,13a1,1,0,0,1-.23.89,1,1,0,0,1-.85.33c-4.83-.5-18.92-6.83-24.87-10.4-4.84-2.89-26.6-.23-34.58,1C172.8,134.23,158.34,153.71,150.55,170.84Z" fill="#093f68"></path><polygon points="217.75 126.62 210.79 164.83 201.72 127.76 217.75 126.62" fill="#fff"></polygon><path d="M210.79,165.83a1,1,0,0,1-1-.76L200.75,128a1,1,0,0,1,.9-1.24l16-1.14a1.05,1.05,0,0,1,.82.33,1,1,0,0,1,.23.85l-7,38.21a1,1,0,0,1-1,.82ZM203,128.67,210.65,160l5.89-32.33Z" fill="#093f68"></path><path d="M206.27,122.94h7.89a0,0,0,0,1,0,0v4.54a3.35,3.35,0,0,1-3.35,3.35h-1.19a3.35,3.35,0,0,1-3.35-3.35v-4.54A0,0,0,0,1,206.27,122.94Z" fill="#ffc9b0"></path><path d="M210.81,131.83h-1.19a4.35,4.35,0,0,1-4.35-4.35v-4.54a1,1,0,0,1,1-1h7.89a1,1,0,0,1,1,1v4.54A4.35,4.35,0,0,1,210.81,131.83Zm-3.54-7.89v3.54a2.36,2.36,0,0,0,2.35,2.35h1.19a2.35,2.35,0,0,0,2.35-2.35v-3.54Z" fill="#093f68"></path><path d="M182.45,102.44s-2.8-31.29-.19-36,8.45-3.56,8.45-3.56-.43-13.67,11.8-14.33S221.77,61,228.62,60s8.67-4,8.67-4a12.56,12.56,0,0,1-1.46,13.85s5.39-1.58,6,5.6-3.64,26.24-3.64,26.24l-4.89-.86Z" fill="#093f68"></path><path d="M182.45,103.44a1,1,0,0,1-1-.91c-.29-3.23-2.74-31.74-.07-36.59,2-3.62,5.87-4.35,8.37-4.2.23-3.48,1.84-13.63,12.71-14.21,7.22-.38,12.73,3.8,17.17,7.16,3.35,2.54,6.25,4.73,8.85,4.36,6.21-.89,7.94-3.52,8-3.54a1,1,0,0,1,.85-.49h0a1,1,0,0,1,.86.5,13.76,13.76,0,0,1-.34,13.25,5.17,5.17,0,0,1,2.28.85c1.59,1.08,2.52,3,2.77,5.76.65,7.25-3.49,25.76-3.66,26.55a1,1,0,0,1-1.15.76l-4.79-.84-50.79,1.59Zm6.63-39.71a6.48,6.48,0,0,0-5.94,3.17c-1.76,3.2-.86,22,.22,34.51l49.95-1.56a.68.68,0,0,1,.2,0l4,.69c.84-3.9,4-19,3.41-25-.19-2.11-.82-3.55-1.88-4.28a3.8,3.8,0,0,0-2.89-.45,1,1,0,0,1-1.1-.42,1,1,0,0,1,.05-1.17A11.4,11.4,0,0,0,237,57.79c-1.28,1.09-3.77,2.6-8.23,3.24-3.43.49-6.64-1.93-10.35-4.74C214,53,209,49.19,202.56,49.53c-11.09.59-10.87,12.78-10.85,13.3a1,1,0,0,1-.36.8,1,1,0,0,1-.84.21A8.91,8.91,0,0,0,189.08,63.73Z" fill="#093f68"></path><rect x="231.22" y="84.03" width="18.71" height="30.84" rx="3.43" transform="translate(-18.99 79.62) rotate(-18.09)" fill="#fff"></rect><path d="M238.67,117.11a4.43,4.43,0,0,1-4.21-3L227,91.26a4.43,4.43,0,0,1,2.83-5.58L241.11,82a4.42,4.42,0,0,1,5.58,2.83l7.45,22.8a4.42,4.42,0,0,1-2.83,5.58h0L240,116.89A4.36,4.36,0,0,1,238.67,117.11Zm3.81-33.33a2.5,2.5,0,0,0-.75.12l-11.26,3.68a2.43,2.43,0,0,0-1.56,3.06l7.45,22.8a2.42,2.42,0,0,0,3.06,1.55l11.27-3.68a2.42,2.42,0,0,0,1.55-3.06l-7.45-22.79A2.42,2.42,0,0,0,242.48,83.78ZM251,112.26h0Z" fill="#093f68"></path><rect x="233.13" y="87.16" width="13.79" height="22.72" rx="1.2" transform="translate(-18.73 79.4) rotate(-18.09)" fill="#dfeaef"></rect><ellipse cx="187.67" cy="102.44" rx="7.67" ry="6.61" fill="#ffc9b0"></ellipse><path d="M187.67,110.05c-4.78,0-8.67-3.42-8.67-7.61s3.89-7.61,8.67-7.61,8.66,3.42,8.66,7.61S192.44,110.05,187.67,110.05Zm0-13.22c-3.68,0-6.67,2.52-6.67,5.61s3,5.61,6.67,5.61,6.66-2.52,6.66-5.61S191.34,96.83,187.67,96.83Z" fill="#093f68"></path><ellipse cx="232.36" cy="102.44" rx="7.67" ry="6.61" fill="#ffc9b0"></ellipse><path d="M232.36,110.05c-4.78,0-8.67-3.42-8.67-7.61s3.89-7.61,8.67-7.61,8.66,3.42,8.66,7.61S237.14,110.05,232.36,110.05Zm0-13.22c-3.68,0-6.67,2.52-6.67,5.61s3,5.61,6.67,5.61,6.66-2.52,6.66-5.61S236,96.83,232.36,96.83Z" fill="#093f68"></path><path d="M210.22,124h0a23.12,23.12,0,0,1-23.12-23.12V84.06c1.35,2.22,5.84,1.34,12.41-9.94,24.63,12.47,33.83,5.32,33.83,5.32v21.41A23.12,23.12,0,0,1,210.22,124Z" fill="#ffc9b0"></path><path d="M210.22,125a24.15,24.15,0,0,1-24.12-24.12V84.06a1,1,0,0,1,1.85-.52,1,1,0,0,0,.92.5h0c1.8,0,5.3-2.77,9.77-10.43a1,1,0,0,1,1.31-.39c23.61,12,32.68,5.49,32.77,5.43a1,1,0,0,1,1.61.79v21.41A24.15,24.15,0,0,1,210.22,125ZM188.1,86v14.9a22.12,22.12,0,0,0,44.24,0V81.12c-3.61,1.54-13.48,3.71-32.44-5.69-4.1,6.82-8,10.58-11,10.61A4,4,0,0,1,188.1,86Z" fill="#093f68"></path><circle cx="201.65" cy="97.49" r="2.14" fill="#093f68"></circle><circle cx="221.59" cy="97.49" r="2.14" fill="#093f68"></circle><path d="M212.09,107.34a13.52,13.52,0,0,1-2.15-.18,1,1,0,1,1,.35-2,10,10,0,0,0,2.79.08,17.33,17.33,0,0,0-1.77-4.63,1,1,0,1,1,1.77-.92c1,1.84,2.47,5.14,1.82,6.58a1.48,1.48,0,0,1-1,.85A8,8,0,0,1,212.09,107.34Z" fill="#093f68"></path><path d="M206.73,92.31l-.23,0-10.14-1.14a2,2,0,1,1,.44-4L207,88.32a2,2,0,0,1-.22,4Z" fill="#093f68"></path><path d="M218.43,92.24a2,2,0,0,1,0-4l10.21-.18a2,2,0,0,1,2,2,2,2,0,0,1-2,2l-10.21.19Z" fill="#093f68"></path><path d="M207.91,103.85H197.62a3.29,3.29,0,0,1-3.29-3.28V94.2a1,1,0,0,1,1-1h14.86a1,1,0,0,1,1,1v6.37A3.28,3.28,0,0,1,207.91,103.85ZM196.33,95.2v5.37a1.28,1.28,0,0,0,1.29,1.28h10.29a1.28,1.28,0,0,0,1.28-1.28V95.2Z" fill="#093f68"></path><path d="M226.36,103.85H216.07a3.28,3.28,0,0,1-3.28-3.28V94.2a1,1,0,0,1,1-1h14.85a1,1,0,0,1,1,1v6.37A3.28,3.28,0,0,1,226.36,103.85ZM214.79,95.2v5.37a1.28,1.28,0,0,0,1.28,1.28h10.29a1.28,1.28,0,0,0,1.28-1.28V95.2Z" fill="#093f68"></path><path d="M215.07,115.41c-2.53,0-7.5-.75-13-5.62a1,1,0,1,1,1.32-1.49c6.92,6.15,12.74,5.06,13,5a1,1,0,1,1,.41,2A8.44,8.44,0,0,1,215.07,115.41Z" fill="#093f68"></path><path d="M195.33,97.64H185.26a1,1,0,0,1,0-2h10.07a1,1,0,0,1,0,2Z" fill="#093f68"></path><path d="M232.36,97.64h-3.67a1,1,0,0,1,0-2h3.67a1,1,0,0,1,0,2Z" fill="#093f68"></path><rect x="207.86" y="132.28" width="5.85" height="4.6" rx="1.7" fill="#f56132"></rect><path d="M212,137.88h-2.45a2.7,2.7,0,0,1-2.69-2.7V134a2.7,2.7,0,0,1,2.69-2.7H212a2.7,2.7,0,0,1,2.7,2.7v1.2A2.7,2.7,0,0,1,212,137.88Zm-2.45-4.6a.69.69,0,0,0-.69.7v1.2a.69.69,0,0,0,.69.7H212a.7.7,0,0,0,.7-.7V134a.7.7,0,0,0-.7-.7Z" fill="#093f68"></path><polygon points="213.39 150.58 210.79 164.83 207.65 151.97 209.11 136.88 212.46 136.88 213.39 150.58" fill="#f56132"></polygon><path d="M210.79,165.83a1,1,0,0,1-1-.76l-3.15-12.86a1.3,1.3,0,0,1,0-.34l1.47-15.09a1,1,0,0,1,1-.9h3.35a1,1,0,0,1,1,.93l.92,13.71a1,1,0,0,1,0,.24L211.77,165a1,1,0,0,1-1,.82Zm-2.13-13.93,2,8.14,1.73-9.51-.85-12.65H210Z" fill="#093f68"></path><path d="M188.44,144.35a1,1,0,0,1-1-1V136.8a1,1,0,0,1,2,0v6.55A1,1,0,0,1,188.44,144.35Z" fill="#093f68"></path><path d="M153.63,112.46H112.51a1,1,0,0,1-1-1V86.63a1,1,0,0,1,1-1h41.12a1,1,0,0,1,1,1v24.83A1,1,0,0,1,153.63,112.46Zm-40.12-2h39.12V87.63H113.51Z" fill="#dfeaef"></path></g></svg>